<svg xmlns="http://www.w3.org/2000/svg" version="1.1" xmlns:xlink="http://www.w3.org/1999/xlink" xmlns:svgjs="http://svgjs.com/svgjs" width="1440" height="560" preserveAspectRatio="none" viewBox="0 0 1440 560"><g mask="url(&quot;#SvgjsMask1041&quot;)" fill="none"><rect width="1440" height="560" x="0" y="0" fill="rgba(255, 255, 255, 1)"></rect><path d="M 0,170 C 96,138.2 288,9 480,11 C 672,13 768,169.4 960,180 C 1152,190.6 1344,87.2 1440,64L1440 560L0 560z" fill="rgba(52, 78, 150, 1)"></path><path d="M 0,341 C 57.6,320.4 172.8,246 288,238 C 403.2,230 460.8,306 576,301 C 691.2,296 748.8,205.2 864,213 C 979.2,220.8 1036.8,331.2 1152,340 C 1267.2,348.8 1382.4,273.6 1440,257L1440 560L0 560z" fill="rgba(52, 78, 150, 1)"></path><path d="M 0,501 C 96,479.2 288,391.4 480,392 C 672,392.6 768,504.4 960,504 C 1152,503.6 1344,412.8 1440,390L1440 560L0 560z" fill="rgba(52, 78, 150, 1)"></path></g><defs><mask id="SvgjsMask1041"><rect width="1440" height="560" fill="#ffffff"></rect></mask></defs></svg>