<svg xmlns="http://www.w3.org/2000/svg" version="1.1" xmlns:xlink="http://www.w3.org/1999/xlink" xmlns:svgjs="http://svgjs.com/svgjs" width="1440" height="560" preserveAspectRatio="none" viewBox="0 0 1440 560"><g mask="url(&quot;#SvgjsMask1026&quot;)" fill="none"><rect width="1440" height="560" x="0" y="0" fill="rgba(255, 255, 255, 1)"></rect><path d="M 0,63 C 57.6,81.4 172.8,144.8 288,155 C 403.2,165.2 460.8,110.6 576,114 C 691.2,117.4 748.8,186.4 864,172 C 979.2,157.6 1036.8,33.4 1152,42 C 1267.2,50.6 1382.4,180.4 1440,215L1440 560L0 560z" fill="rgba(52, 78, 150, 1)"></path><path d="M 0,468 C 96,442.6 288,324.8 480,341 C 672,357.2 768,544.4 960,549 C 1152,553.6 1344,401 1440,364L1440 560L0 560z" fill="#2264ab"></path></g><defs><mask id="SvgjsMask1026"><rect width="1440" height="560" fill="#ffffff"></rect></mask></defs></svg>